<svg width="115" height="31" viewBox="0 0 115 31" fill="none"
    xmlns="http://www.w3.org/2000/svg">
    <path d="M33.9 12.2L35.3 12.1C35.3 12.5 35.2 13 35.2 13.5V22.1C35.2 22.8 35.2 23.3 35.2 23.5C35.2 23.8 35.1 24 34.9 24.2C34.7 24.4 34.4 24.5 33.9 24.5H33.8V25.2H39.2V24.2L37.2 24.3C37.2 23.9 37.3 23.4 37.3 22.8V18.7L38.4 18.6C38.6 18.6 38.8 18.6 39.1 18.6C39.5 18.6 39.8 18.6 40 18.7C40.2 18.8 40.4 19 40.5 19.2C40.6 19.5 40.6 19.8 40.6 20.3H41.5V16H40.3L40.4 17.7H37.2V14.3C37.2 13.6 37.2 13.2 37.2 12.9C37.2 12.6 37.3 12.4 37.5 12.2C37.7 12 38 11.9 38.4 11.9H39.9C40.7 11.9 41.4 12.1 41.8 12.5C42.3 12.9 42.5 13.6 42.5 14.7H43.4L43.3 11.1H33.9V12.2Z" fill="var(--icon-color, currentColor)"/>
    <path d="M46.6 13.2C46.9 13.2 47.2 13.1 47.4 12.8C47.6 12.5 47.8 12.2 47.8 11.9C47.8 11.5 47.7 11.2 47.5 11C47.3 10.7 47 10.6 46.7 10.6C46.4 10.6 46.1 10.7 45.9 11C45.7 11.3 45.5 11.6 45.5 11.9C45.5 12.2 45.6 12.5 45.8 12.8C46.1 13 46.3 13.2 46.6 13.2Z" fill="var(--icon-color, currentColor)"/>
    <path d="M47.6 23.3V15.8H46.9C46.8 16 46.5 16.1 46.2 16.2C45.9 16.3 45.3 16.3 44.6 16.3V17.3L45.9 17.2C45.9 17.6 45.8 18 45.8 18.3V22.4C45.8 23 45.8 23.4 45.8 23.7C45.8 24 45.7 24.2 45.5 24.3C45.3 24.5 45.1 24.5 44.7 24.5V25.3H48.7V24.3H47.6C47.6 24.2 47.6 23.8 47.6 23.3Z" fill="var(--icon-color, currentColor)"/>
    <path d="M56 15.7C55.4 15.7 54.9 15.9 54.3 16.2C53.8 16.5 53.3 16.9 53 17.4C53 16.8 53 16.2 52.9 15.8H52.2C52 16 51.8 16.1 51.6 16.2C51.4 16.3 51.1 16.3 50.6 16.3H49.9V17.3L51.2 17.2C51.2 17.5 51.1 17.8 51.1 18.3V22.4C51.1 23 51.1 23.4 51.1 23.7C51.1 24 51 24.2 50.8 24.3C50.6 24.5 50.4 24.5 50 24.5V25.3H54V24.3H52.8C52.8 24.1 52.9 23.7 52.9 23.2V18.9C53.2 18.4 53.6 17.9 54 17.5C54.4 17.1 54.9 17 55.3 17C55.3 17.3 55.4 17.5 55.6 17.7C55.8 17.9 56 18 56.3 18C56.6 18 56.8 17.9 57 17.7C57.2 17.5 57.3 17.3 57.3 17C57.3 16.6 57.2 16.3 56.9 16.1C56.7 15.9 56.4 15.7 56 15.7Z" fill="var(--icon-color, currentColor)"/>
    <path d="M66.4 23C66.1 23.4 65.7 23.8 65.1 24.1C64.5 24.4 63.9 24.5 63.3 24.5C62.3 24.5 61.6 24.1 61.1 23.4C60.6 22.6 60.4 21.6 60.4 20.2L66.9 20.1C66.9 19.2 66.7 18.4 66.4 17.8C66.1 17.2 65.6 16.7 65 16.4C64.4 16.1 63.8 15.9 63 15.9C62.1 15.9 61.3 16.1 60.6 16.6C59.8 16.9 59.2 17.5 58.8 18.3C58.4 19.1 58.2 19.9 58.2 20.8C58.2 21.8 58.4 22.6 58.8 23.4C59.2 24.2 59.8 24.7 60.5 25.1C61.2 25.5 62 25.7 62.9 25.7C63.6 25.7 64.4 25.5 65.2 25.1C66 24.7 66.6 24.2 67.1 23.4L66.4 23ZM61.3 17.3C61.7 16.9 62.3 16.7 63 16.7C63.6 16.7 64.1 16.9 64.4 17.4C64.7 17.9 64.9 18.4 64.9 19.1H60.4C60.6 18.3 60.9 17.7 61.3 17.3Z" fill="var(--icon-color, currentColor)"/>
    <path d="M74.3 20.6C73.9 20.4 73.3 20.1 72.7 19.9C71.9 19.6 71.3 19.3 70.9 19.1C70.5 18.8 70.3 18.5 70.3 18C70.3 17.6 70.5 17.3 70.7 17.1C71 16.9 71.4 16.7 72 16.7C72.7 16.7 73.3 17 73.7 17.5C74.1 18 74.3 18.6 74.3 19.3H75.1V15.9H74.1V16.5C73.4 16 72.7 15.8 71.9 15.8C71.1 15.8 70.5 15.9 70 16.2C69.5 16.5 69.2 16.9 69 17.3C68.8 17.7 68.7 18.1 68.7 18.5C68.7 19.1 68.8 19.6 69.1 20C69.4 20.4 69.8 20.7 70.2 20.9C70.6 21.1 71.2 21.4 71.8 21.6C72.6 21.9 73.1 22.2 73.5 22.4C73.9 22.6 74 23 74 23.4C74 23.8 73.8 24.2 73.4 24.4C73 24.6 72.6 24.7 72.1 24.7C71.6 24.7 71.2 24.6 70.8 24.4C70.4 24.2 70.1 23.9 69.8 23.5C69.6 23.1 69.5 22.7 69.5 22.2H68.7L68.8 25.6H69.8L69.7 25.1C70 25.3 70.5 25.5 70.9 25.6C71.4 25.7 71.9 25.8 72.4 25.8C73 25.8 73.5 25.7 74 25.5C74.5 25.3 74.9 25 75.2 24.6C75.5 24.2 75.7 23.7 75.7 23.1C75.7 22.6 75.6 22.1 75.3 21.7C75.1 21.1 74.7 20.8 74.3 20.6Z" fill="var(--icon-color, currentColor)"/>
    <path d="M83.1001 23.3C82.9001 23.7 82.6001 23.9 82.3 24.1C82 24.3 81.7001 24.4 81.3 24.4C80.8 24.4 80.5 24.2 80.3 23.8C80.1001 23.4 80 22.8 80 21.9V17H83.1001V16H80V13.4H79.2001C79.0001 14.1 78.7001 14.7 78.3 15.2C77.9 15.7 77.4 16 76.8 15.9V16.9H78.2001V22C78.2001 24.3 79.1001 25.5 80.8 25.5C81.9 25.5 82.9 24.9 83.7001 23.6L83.1001 23.3Z" fill="var(--icon-color, currentColor)"/>
    <path d="M91.3 16.3C90.6 15.9 89.8 15.7 89 15.7C88.1 15.7 87.4 15.9 86.7 16.4C86 16.9 85.5 17.5 85.1 18.3C84.7 19.1 84.5 20 84.5 20.9C84.5 21.8 84.7 22.6 85.1 23.4C85.5 24.1 86 24.7 86.7 25.1C87.4 25.5 88.2 25.7 89 25.7C89.9 25.7 90.6 25.5 91.3 25C92 24.5 92.5 23.9 92.9 23.1C93.3 22.3 93.5 21.4 93.5 20.5C93.5 19.6 93.3 18.8 92.9 18.1C92.6 17.3 92 16.8 91.3 16.3ZM91.1 23.6C90.7 24.3 90 24.6 89.1 24.6C88.2 24.6 87.5 24.2 87 23.4C86.5 22.6 86.3 21.6 86.3 20.4C86.3 19.3 86.5 18.5 87 17.8C87.4 17.1 88.1 16.7 89 16.7C89.9 16.7 90.6 17.1 91 18C91.5 18.8 91.7 19.9 91.7 21C91.7 22.1 91.5 23 91.1 23.6Z" fill="var(--icon-color, currentColor)"/>
    <path d="M103.5 23.2V19.9C103.5 18.5 103.2 17.4 102.7 16.7C102.2 16 101.4 15.7 100.3 15.7C99.8 15.7 99.3 15.8 98.8 16C98.3 16.2 97.8 16.5 97.4 16.9C97.4 16.4 97.3 16 97.3 15.8H96.7C96.5 16 96.3 16.1 96 16.2C95.7 16.3 95.2 16.3 94.4 16.3V17.3L95.7 17.2C95.7 17.5 95.6 17.8 95.6 18.3V22.3C95.6 22.9 95.6 23.3 95.5 23.6C95.5 23.8 95.4 24 95.2 24.2C95.1 24.4 94.8 24.4 94.4 24.4V25.2H98.3V24.2H97.2C97.2 24 97.2 23.6 97.2 23.1V18.6C97.2 18.3 97.2 18.1 97.2 18C97.5 17.7 97.8 17.4 98.3 17.2C98.7 17 99.2 16.9 99.6 16.9C100.3 16.9 100.8 17.1 101.1 17.6C101.4 18.1 101.6 18.9 101.6 19.9V22.3C101.6 22.9 101.6 23.3 101.6 23.6C101.6 23.9 101.5 24.1 101.3 24.2C101.1 24.4 100.9 24.4 100.5 24.4V25.2H104.4V24.2H103.3C103.4 24 103.5 23.7 103.5 23.2Z" fill="var(--icon-color, currentColor)"/>
    <path d="M114 23C113.7 23.4 113.2 23.8 112.6 24.1C112 24.4 111.4 24.5 110.8 24.5C109.8 24.5 109.1 24.1 108.6 23.4C108.1 22.6 107.9 21.6 107.9 20.2L114.4 20.1C114.4 19.2 114.2 18.4 113.9 17.8C113.6 17.2 113.1 16.7 112.5 16.4C111.9 16.1 111.3 15.9 110.5 15.9C109.6 15.9 108.8 16.1 108.1 16.6C107.4 17.1 106.8 17.7 106.4 18.4C106 19.2 105.8 20 105.8 20.9C105.8 21.9 106 22.7 106.4 23.5C106.8 24.3 107.4 24.8 108.1 25.2C108.8 25.6 109.6 25.8 110.4 25.8C111.1 25.8 111.9 25.6 112.7 25.2C113.5 24.8 114.1 24.3 114.6 23.5L114 23ZM108.9 17.3C109.3 16.9 109.9 16.7 110.6 16.7C111.2 16.7 111.7 16.9 112 17.4C112.3 17.9 112.5 18.4 112.5 19.1H108C108.1 18.3 108.4 17.7 108.9 17.3Z" fill="var(--icon-color, currentColor)"/>
    <path d="M17.4 7.7C17.4 7.7 17.4 9.2 16.8 10.7C16.8 10.7 16.8 10.8 16.7 10.8C16.4 11.6 15.6 12.2 14.7 12.2C14.5 12.2 14.3 12.2 14.1 12.1H14C14 12.1 14 12.1 13.9 12.1C12.8 11.7 12 10.3 13.2 8.4C15.7 4.2 13.5 2.1 10.6 0C10.6 0 11.4 5.4 5.2 10.2C3.6 6.5 0 4.3 0 4.3C2.9 9.8 1.8 13.1 0.7 15.8C0.2 17 0 18.5 0 19.9C0 19.9 0 19.9 0 20C0 20 0 20 0 20.1C0 26.1 4.9 31 11 31C14.1 31 17 29.7 19 27.6C20 26.6 20.8 25.4 21.3 24C21.7 22.9 22 21.6 22 20.3V20.2C22.2 16.4 20.8 10.3 17.4 7.7ZM16.8 20.6C16.8 20.8 16.8 21 16.7 21.2C16.6 21.6 16.6 22 16.6 22.3C16.6 22.6 16.4 22.8 16.3 23.1C16 23.5 15.9 23.9 15.9 24.3C15.9 24.5 15.8 24.6 15.8 24.8C15.8 24.9 15.7 24.9 15.7 24.9C15.3 25.3 14.9 25.6 14.5 26C14.1 26.4 13.7 26.7 13.2 26.9C12.7 27.2 12.3 27.3 11.7 27.3C11.4 27.3 11.2 27.3 11 27.4C10.5 27.6 10.1 27.7 9.5 27.8C9.2 27.8 9 27.8 8.7 27.7C8.5 27.6 8.3 27.6 8 27.6C7.7 27.6 7.5 27.6 7.2 27.5C7 27.4 6.8 27.4 6.6 27.4C6.5 27.4 6.4 27.3 6.3 27.2C6.2 27.1 6.2 27 6.1 26.9C6 26.7 6 26.7 6.2 26.6C6.4 26.5 6.7 26.3 6.9 26.2C7.2 26 7.5 25.9 7.8 25.9C8.1 25.8 8.4 25.7 8.6 25.4C8.9 25.1 9.2 25.1 9.6 25C10.2 24.9 10.8 24.6 11.4 24.4C11.5 24.4 11.6 24.3 11.7 24.2C12.1 23.8 12.5 23.4 12.9 23C13 22.9 13.1 22.7 13.2 22.5C13.4 22.3 13.5 22 13.6 21.8C13.6 21.7 13.7 21.7 13.7 21.6C13.7 21.4 13.7 21.1 13.7 20.9C13.6 20.4 13.6 19.9 13.6 19.4C13.6 19.1 13.5 18.8 13.3 18.5C13.1 18.2 12.9 17.9 12.8 17.6C12.7 17.4 12.6 17.3 12.4 17.3C11.8 17.1 11.1 17.1 10.4 17.1C10 17.1 9.6 17.3 9.2 17.4C9.2 17.4 9.1 17.4 9.1 17.5C8.8 17.8 8.5 18 8.3 18.3C8.3 18.3 8.2 18.4 8.2 18.5C8.1 18.9 8 19.4 8 19.9C8 20.2 8 20.6 8.2 20.9C8.3 21 8.4 21.2 8.5 21.3C8.6 21.4 8.7 21.4 8.8 21.4C9 21.3 9.2 21.2 9.4 21.1C9.3 20.8 9.2 20.4 9.1 20.1C9.5 19.8 10 19.8 10.5 19.8C10.7 19.8 10.9 19.9 11.1 19.9C11.1 19.9 11.1 19.9 11.2 19.9C11.6 20.4 11.9 20.9 11.9 21.6C11.9 21.9 11.8 22.1 11.8 22.4C11.8 22.4 11.8 22.5 11.7 22.5C11.4 22.8 11 23.1 10.7 23.3C10.6 23.3 10.6 23.4 10.5 23.4C10 23.5 9.4 23.6 8.9 23.8H8.8C8.5 23.9 8.1 23.9 7.8 23.6C7.7 23.5 7.7 23.4 7.6 23.4C7.5 23.3 7.4 23.1 7.3 23.1C6.8 22.7 6.3 22.3 6 21.7C5.9 21.4 5.6 21.2 5.4 20.9C5.3 20.8 5.2 20.6 5.2 20.5C5.1 19.9 5.2 19.2 5.1 18.6C5.1 18.5 5 18.3 5 18.2C4.9 18 5 18 5.1 17.9C5.4 17.7 5.6 17.6 5.9 17.4C6.1 17.2 6.2 17 6.4 16.8C6.6 16.5 6.9 16.3 7.2 16.1C7.8 15.7 8.4 15.3 9 14.9C9.3 14.8 9.6 14.7 9.9 14.6C10 14.6 10.1 14.7 10.1 14.7C10.3 14.9 10.3 15 10.6 14.8C10.9 14.6 11.2 14.6 11.5 14.9C11.6 15 11.8 15 11.9 15C12.2 15 12.4 15 12.7 15C12.8 15 12.9 15 12.9 15.1C13 15.2 13.1 15.3 13.2 15.3C13.3 15.3 13.4 15.3 13.5 15.4C13.6 15.6 13.7 15.6 13.9 15.6C14 15.6 14.2 15.5 14.3 15.5C14.4 15.5 14.5 15.5 14.5 15.6C14.8 16 15.2 16.3 15.5 16.7C15.8 17.1 16.1 17.4 16.4 17.8C16.5 17.9 16.5 18 16.5 18.1C16.6 18.6 16.7 19 16.8 19.5C16.8 19.7 16.9 19.9 17 20.1C16.9 20.2 16.9 20.4 16.8 20.6Z" fill="var(--icon-color, currentColor)"/>
</svg>
